# 3ds Max Wavefront OBJ Exporter v0.97b - (c)2007 guruware
# File Created: 17.07.2018 18:04:05

mtllib boxes.mtl

#
# object Box001
#

v  -5.000000 -5.000000 -5.000001
v  5.000000 -5.000000 -5.000001
v  -5.000000 5.000000 -4.999999
v  5.000000 5.000000 -4.999999
v  -5.000000 -5.000001 4.999999
v  5.000000 -5.000001 4.999999
v  -5.000000 4.999999 5.000001
v  5.000000 4.999999 5.000001
# 8 vertices

vn 0.000000 0.000000 -1.000000
vn 0.000000 -0.000000 1.000000
vn 0.000000 -1.000000 -0.000000
vn 1.000000 0.000000 -0.000000
vn 0.000000 1.000000 0.000000
vn -1.000000 0.000000 -0.000000
# 6 vertex normals

vt 1.000000 0.000000 0.000000
vt 1.000000 1.000000 0.000000
vt 0.000000 1.000000 0.000000
vt 0.000000 0.000000 0.000000
# 4 texture coords

g Box001
usemtl wire_153228184
s 2
f -8/-4/-6 -6/-3/-6 -5/-2/-6 
f -5/-2/-6 -7/-1/-6 -8/-4/-6 
s 4
f -4/-1/-5 -3/-4/-5 -1/-3/-5 
f -1/-3/-5 -2/-2/-5 -4/-1/-5 
s 8
f -8/-1/-4 -7/-4/-4 -3/-3/-4 
f -3/-3/-4 -4/-2/-4 -8/-1/-4 
s 16
f -7/-1/-3 -5/-4/-3 -1/-3/-3 
f -1/-3/-3 -3/-2/-3 -7/-1/-3 
s 32
f -5/-1/-2 -6/-4/-2 -2/-3/-2 
f -2/-3/-2 -1/-2/-2 -5/-1/-2 
s 64
f -6/-1/-1 -8/-4/-1 -4/-3/-1 
f -4/-3/-1 -2/-2/-1 -6/-1/-1 
# 12 faces

#
# object Box002
#

v  -25.000000 -5.000000 -5.000001
v  -15.000000 -5.000000 -5.000001
v  -25.000000 5.000000 -4.999999
v  -15.000000 5.000000 -4.999999
v  -25.000000 -5.000001 4.999999
v  -15.000000 -5.000001 4.999999
v  -25.000000 4.999999 5.000001
v  -15.000000 4.999999 5.000001
# 8 vertices

vn 0.000000 0.000000 -1.000000
vn 0.000000 -0.000000 1.000000
vn 0.000000 -1.000000 -0.000000
vn 1.000000 0.000000 -0.000000
vn 0.000000 1.000000 0.000000
vn -1.000000 0.000000 -0.000000
# 6 vertex normals

vt 1.000000 0.000000 0.000000
vt 1.000000 1.000000 0.000000
vt 0.000000 1.000000 0.000000
vt 0.000000 0.000000 0.000000
# 4 texture coords

g Box002
usemtl wire_153228184
s 2
f -8/-4/-6 -6/-3/-6 -5/-2/-6 
f -5/-2/-6 -7/-1/-6 -8/-4/-6 
s 4
f -4/-1/-5 -3/-4/-5 -1/-3/-5 
f -1/-3/-5 -2/-2/-5 -4/-1/-5 
s 8
f -8/-1/-4 -7/-4/-4 -3/-3/-4 
f -3/-3/-4 -4/-2/-4 -8/-1/-4 
s 16
f -7/-1/-3 -5/-4/-3 -1/-3/-3 
f -1/-3/-3 -3/-2/-3 -7/-1/-3 
s 32
f -5/-1/-2 -6/-4/-2 -2/-3/-2 
f -2/-3/-2 -1/-2/-2 -5/-1/-2 
s 64
f -6/-1/-1 -8/-4/-1 -4/-3/-1 
f -4/-3/-1 -2/-2/-1 -6/-1/-1 
# 12 faces

#
# object Box003
#

v  15.000000 -5.000000 -5.000001
v  25.000000 -5.000000 -5.000001
v  15.000000 5.000000 -4.999999
v  25.000000 5.000000 -4.999999
v  15.000000 -5.000001 4.999999
v  25.000000 -5.000001 4.999999
v  15.000000 4.999999 5.000001
v  25.000000 4.999999 5.000001
# 8 vertices

vn 0.000000 0.000000 -1.000000
vn 0.000000 -0.000000 1.000000
vn 0.000000 -1.000000 -0.000000
vn 1.000000 0.000000 -0.000000
vn 0.000000 1.000000 0.000000
vn -1.000000 0.000000 -0.000000
# 6 vertex normals

vt 1.000000 0.000000 0.000000
vt 1.000000 1.000000 0.000000
vt 0.000000 1.000000 0.000000
vt 0.000000 0.000000 0.000000
# 4 texture coords

g Box003
usemtl wire_153228184
s 2
f -8/-4/-6 -6/-3/-6 -5/-2/-6 
f -5/-2/-6 -7/-1/-6 -8/-4/-6 
s 4
f -4/-1/-5 -3/-4/-5 -1/-3/-5 
f -1/-3/-5 -2/-2/-5 -4/-1/-5 
s 8
f -8/-1/-4 -7/-4/-4 -3/-3/-4 
f -3/-3/-4 -4/-2/-4 -8/-1/-4 
s 16
f -7/-1/-3 -5/-4/-3 -1/-3/-3 
f -1/-3/-3 -3/-2/-3 -7/-1/-3 
s 32
f -5/-1/-2 -6/-4/-2 -2/-3/-2 
f -2/-3/-2 -1/-2/-2 -5/-1/-2 
s 64
f -6/-1/-1 -8/-4/-1 -4/-3/-1 
f -4/-3/-1 -2/-2/-1 -6/-1/-1 
# 12 faces

